<svg xmlns="http://www.w3.org/2000/svg" xmlns:xlink="http://www.w3.org/1999/xlink" width="500" zoomAndPan="magnify" viewBox="0 0 375 374.999991" height="500" preserveAspectRatio="xMidYMid meet" version="1.0"><defs><clipPath id="cde83aff4e"><path d="M 187 122 L 337.5 122 L 337.5 292 L 187 292 Z M 187 122 " clip-rule="nonzero"/></clipPath><clipPath id="fb2288145f"><path d="M 37.5 80.316406 L 247 80.316406 L 247 251 L 37.5 251 Z M 37.5 80.316406 " clip-rule="nonzero"/></clipPath></defs><rect x="-37.5" width="450" fill="#ffffff" y="-37.499999" height="449.999989" fill-opacity="1"/><rect x="-37.5" width="450" fill="#00bf63" y="-37.499999" height="449.999989" fill-opacity="1"/><g clip-path="url(#cde83aff4e)"><path fill="#f9ad30" d="M 187.242188 198.011719 C 187.242188 156.523438 220.84375 122.890625 262.316406 122.890625 C 303.777344 122.890625 337.375 156.523438 337.375 198.011719 C 337.375 233 313.480469 262.386719 281.140625 270.753906 C 285.511719 278.703125 291.800781 287.464844 299.847656 291.855469 C 299.847656 291.855469 260.589844 294.839844 239.820312 269.703125 C 209.34375 260.132812 187.242188 231.660156 187.242188 198.011719 " fill-opacity="1" fill-rule="nonzero"/></g><path fill="#ffffff" d="M 299.695312 177.660156 L 220.539062 177.660156 C 217.660156 177.660156 215.316406 175.324219 215.316406 172.445312 C 215.316406 169.5625 217.660156 167.226562 220.539062 167.226562 L 299.695312 167.226562 C 302.574219 167.226562 304.90625 169.5625 304.90625 172.445312 C 304.90625 175.324219 302.574219 177.660156 299.695312 177.660156 " fill-opacity="1" fill-rule="nonzero"/><path fill="#ffffff" d="M 299.695312 202.597656 L 220.539062 202.597656 C 217.660156 202.597656 215.316406 200.265625 215.316406 197.382812 C 215.316406 194.5 217.660156 192.167969 220.539062 192.167969 L 299.695312 192.167969 C 302.574219 192.167969 304.90625 194.5 304.90625 197.382812 C 304.90625 200.265625 302.574219 202.597656 299.695312 202.597656 " fill-opacity="1" fill-rule="nonzero"/><path fill="#ffffff" d="M 299.695312 227.539062 L 220.539062 227.539062 C 217.660156 227.539062 215.316406 225.191406 215.316406 222.3125 C 215.316406 219.441406 217.660156 217.105469 220.539062 217.105469 L 299.695312 217.105469 C 302.574219 217.105469 304.90625 219.441406 304.90625 222.3125 C 304.90625 225.191406 302.574219 227.539062 299.695312 227.539062 " fill-opacity="1" fill-rule="nonzero"/><g clip-path="url(#fb2288145f)"><path fill="#f15226" d="M 186.355469 97.671875 C 183.011719 97.671875 179.734375 97.941406 176.539062 98.464844 C 167.988281 87.460938 154.632812 80.375 139.625 80.375 C 119.867188 80.375 102.980469 92.628906 96.136719 109.949219 C 92.367188 108.980469 88.414062 108.457031 84.355469 108.457031 C 58.535156 108.457031 37.613281 129.390625 37.613281 155.21875 C 37.613281 181.042969 58.535156 201.992188 84.355469 201.992188 C 85.371094 201.992188 86.375 201.945312 87.375 201.886719 C 96.179688 214.492188 110.78125 222.742188 127.308594 222.742188 C 133.023438 222.742188 138.503906 221.75 143.601562 219.941406 C 143.261719 227.480469 141.46875 244.578125 132.148438 250.574219 C 132.148438 250.574219 168.011719 248.652344 181.273438 218.632812 C 182.953125 218.773438 184.644531 218.855469 186.355469 218.855469 C 219.792969 218.855469 246.910156 191.722656 246.910156 158.265625 C 246.910156 124.792969 219.792969 97.671875 186.355469 97.671875 " fill-opacity="1" fill-rule="nonzero"/></g><path fill="#ffffff" d="M 114.316406 157.714844 C 114.316406 163.796875 109.382812 168.730469 103.296875 168.730469 C 97.21875 168.730469 92.285156 163.796875 92.285156 157.714844 C 92.285156 151.625 97.21875 146.6875 103.296875 146.6875 C 109.382812 146.6875 114.316406 151.625 114.316406 157.714844 " fill-opacity="1" fill-rule="nonzero"/><path fill="#ffffff" d="M 153.269531 157.714844 C 153.269531 163.796875 148.335938 168.730469 142.261719 168.730469 C 136.183594 168.730469 131.25 163.796875 131.25 157.714844 C 131.25 151.625 136.183594 146.6875 142.261719 146.6875 C 148.335938 146.6875 153.269531 151.625 153.269531 157.714844 " fill-opacity="1" fill-rule="nonzero"/><path fill="#ffffff" d="M 192.234375 157.714844 C 192.234375 163.796875 187.300781 168.730469 181.226562 168.730469 C 175.136719 168.730469 170.203125 163.796875 170.203125 157.714844 C 170.203125 151.625 175.136719 146.6875 181.226562 146.6875 C 187.300781 146.6875 192.234375 151.625 192.234375 157.714844 " fill-opacity="1" fill-rule="nonzero"/></svg>